<svg width="1920" height="145" viewBox="0 0 1920 145" fill="none" xmlns="http://www.w3.org/2000/svg">
<path d="M0 0L60 20.5V0L120 20.5V0L180 20.5V0L240 20.5V0L300 20.5V0L360 20.5V0L420 20.5V0L480 20.5V0L540 20.5V0L600 20.5V0L660 20.5V0L720 20.5V0L780 20.5V0L840 20.5V0L900 20.5V0L960 20.5V0L1020 20.5V0L1080 20.5V0L1140 20.5V0L1200 20.5V0L1260 20.5V0L1320 20.5V0L1380 20.5V0L1440 20.5V0L1500 20.5V0L1560 20.5V0L1620 20.5V0L1680 20.5V0L1740 20.5V0L1800 20.5V0L1860 20.5V0L1920 20.5V145H0V0Z" fill="#323232"/>
</svg>
